<svg xmlns="http://www.w3.org/2000/svg" width="28" height="28" viewBox="0 0 28 28">
  <path id="União_12" data-name="União 12" d="M-10048.667,1476a1.168,1.168,0,0,1-1.167-1.166v-1.166h-16.333v1.166a1.169,1.169,0,0,1-1.167,1.166h-1.167a1.168,1.168,0,0,1-1.166-1.166v-1.166h-.584a1.752,1.752,0,0,1-1.75-1.75V1449.75a1.751,1.751,0,0,1,1.75-1.75h24.5a1.75,1.75,0,0,1,1.75,1.75v22.167a1.751,1.751,0,0,1-1.75,1.75h-.583v1.166a1.168,1.168,0,0,1-1.166,1.166Zm0-1.166h1.167v-1.166h-1.167Zm-19.834,0h1.167v-1.166h-1.167Zm-2.333-2.917a.585.585,0,0,0,.583.584h24.5a.584.584,0,0,0,.584-.584V1449.75a.584.584,0,0,0-.584-.584h-24.5a.585.585,0,0,0-.583.584v5.267h2.333v-1.766a1.752,1.752,0,0,1,1.75-1.75h17.5a1.752,1.752,0,0,1,1.751,1.75v15.166a1.752,1.752,0,0,1-1.751,1.75h-17.5a1.752,1.752,0,0,1-1.75-1.75v-1.767h-2.333Zm3.5-18.666v15.166a.583.583,0,0,0,.583.584h17.5a.584.584,0,0,0,.584-.584v-15.166a.584.584,0,0,0-.584-.584h-17.5A.583.583,0,0,0-10067.334,1453.251Zm-3.5,12.236h2.324v-1.163h-2.324Zm0-2.327h2.333v-4.652h-2.333Zm0-5.816h2.324v-1.163h-2.324Zm9.145,8-.85.848-.823-.824.849-.848a5.808,5.808,0,0,1-1.32-3.691,5.812,5.812,0,0,1,1.319-3.689l-.848-.848.825-.824.848.848A5.8,5.8,0,0,1-10058,1455a5.812,5.812,0,0,1,3.689,1.32l.848-.848.825.826-.848.848a5.794,5.794,0,0,1,1.319,3.688,5.8,5.8,0,0,1-1.319,3.689l.848.848-.825.826-.848-.848a5.812,5.812,0,0,1-3.689,1.32A5.807,5.807,0,0,1-10061.689,1465.348Zm-.978-4.515a4.671,4.671,0,0,0,4.666,4.667,4.671,4.671,0,0,0,4.667-4.667,4.671,4.671,0,0,0-4.667-4.666A4.671,4.671,0,0,0-10062.667,1460.833Zm1.75,0a2.92,2.92,0,0,1,2.916-2.917,2.921,2.921,0,0,1,2.917,2.917,2.921,2.921,0,0,1-2.917,2.917A2.919,2.919,0,0,1-10060.917,1460.833Zm1.166,0a1.751,1.751,0,0,0,1.75,1.75,1.751,1.751,0,0,0,1.75-1.75,1.751,1.751,0,0,0-1.75-1.749A1.751,1.751,0,0,0-10059.751,1460.833Z" transform="translate(10072.001 -1448)" fill="#093145"/>
</svg>
