<svg xmlns="http://www.w3.org/2000/svg" width="27.707" height="12.854" viewBox="0 0 27.707 12.854">
  <path id="União_4" data-name="União 4" d="M-1750,1458.5a1.5,1.5,0,0,1,1.5-1.5,1.5,1.5,0,0,1,1.5,1.5,1.5,1.5,0,0,1-1.5,1.5A1.5,1.5,0,0,1-1750,1458.5Zm-7.5-6-7.5,7.5Zm19.5-4.5-9,9Zm-16.5,4.5,4.5,4.5Zm-3-1.5a1.5,1.5,0,0,1,1.5-1.5,1.5,1.5,0,0,1,1.5,1.5,1.5,1.5,0,0,1-1.5,1.5A1.5,1.5,0,0,1-1757.5,1451Z" transform="translate(1765.354 -1447.646)" fill="none" stroke="#093145" stroke-linecap="square" stroke-width="1"/>
</svg>
