<svg xmlns="http://www.w3.org/2000/svg" width="28.01" height="22.408" viewBox="0 0 28.01 22.408">
  <g id="noun_fork_lift_2929902" data-name="noun_fork lift_2929902" transform="translate(-7.3 -16.7)">
    <path id="Caminho_4091" data-name="Caminho 4091" d="M25.836,16.7a.5.5,0,0,0-.507.51V28.876h-.792l-.032-.064-2.883-7.236c0-.032,0-.032-.032-.064,0-.032,0-.032-.032-.064l-1.521-3.857a.519.519,0,0,0-.475-.319H9.993a.5.5,0,0,0-.507.51V28.844H7.807a.5.5,0,0,0-.507.51v7.013a.5.5,0,0,0,.507.51H8.6l.032.064a2.776,2.776,0,0,0,2.662,2.167,2.716,2.716,0,0,0,2.662-2.167l.032-.064H18.9l.032.064a2.776,2.776,0,0,0,2.662,2.167,2.716,2.716,0,0,0,2.662-2.167l.032-.064h1.489a.5.5,0,0,0,.507-.51V31.331H34.8a.51.51,0,0,0,0-1.02H26.311V17.21A.518.518,0,0,0,25.836,16.7Zm-4.024,8.1,1.648,4.08H21.622V24.414ZM10.5,18.326h8.745v.064L20.608,21.8v2.614h-2.25a.51.51,0,0,0,0,1.02h2.25v3.474H17.249v-.574a.5.5,0,0,0-.507-.51H13.194V22.533a.507.507,0,1,0-1.014,0v6.343H10.469V18.326Zm2.345,18.743a1.727,1.727,0,0,1-1.584,1.084,1.68,1.68,0,0,1-1.584-1.084,1.667,1.667,0,0,1,0-1.275,1.68,1.68,0,0,1,1.584-1.084,1.727,1.727,0,0,1,1.584,1.084,1.434,1.434,0,0,1,.127.638A1.527,1.527,0,0,1,12.845,37.068Zm10.266,0a1.7,1.7,0,0,1-3.169,0,1.667,1.667,0,0,1,0-1.275,1.7,1.7,0,0,1,3.169,0,1.434,1.434,0,0,1,.127.638A1.527,1.527,0,0,1,23.111,37.068Zm2.06-1.179h-.982l-.032-.064a2.718,2.718,0,0,0-5.323,0l-.032.064H13.954l-.032-.064a2.718,2.718,0,0,0-5.323,0l-.032.064H8.282V29.9H25.171Z" transform="translate(0 0)" fill="#093145"/>
    <path id="Caminho_4092" data-name="Caminho 4092" d="M77.2,32.8H71.625a.42.42,0,0,0-.425.425V38.8a.42.42,0,0,0,.425.425H77.2a.42.42,0,0,0,.425-.425V33.225A.437.437,0,0,0,77.2,32.8Zm-.425,5.578H72.05V33.65h4.728Z" transform="translate(-42.398 -10.519)" fill="#093145"/>
  </g>
</svg>
