<svg xmlns="http://www.w3.org/2000/svg" width="24.944" height="27.121" viewBox="0 0 24.944 27.121">
  <path id="Icon_metro-water" data-name="Icon metro-water" d="M15.565,13.419c-.662,5.375-4.045,6.331-4.045,10.067a4.2,4.2,0,0,0,8.394,0c0-3.737-3.382-4.693-4.045-10.067a.156.156,0,0,0-.3,0ZM7.791,1.664C7.129,7.039,3.746,7.993,3.746,11.731a4.2,4.2,0,0,0,8.393,0c0-3.737-3.382-4.693-4.045-10.067a.156.156,0,0,0-.3,0Zm15.552,0C22.68,7.039,19.3,7.995,19.3,11.731a4.2,4.2,0,0,0,8.393,0c0-3.737-3.382-4.693-4.045-10.067a.156.156,0,0,0-.3,0Z" transform="translate(-3.246 -1.044)" fill="none" stroke="#093145" stroke-width="1"/>
</svg>
