<svg xmlns="http://www.w3.org/2000/svg" width="28.292" height="24.987" viewBox="0 0 28.292 24.987">
  <path id="União_14" data-name="União 14" d="M-10050.1,1478h-25.639a1.147,1.147,0,0,1-1.241-1,1.548,1.548,0,0,1,.293-.918c.485-.84.969-1.687,1.454-2.531q2.751-4.787,5.49-9.582,2.493-4.347,4.987-8.69a12.766,12.766,0,0,1,.9-1.545,1.117,1.117,0,0,1,1.859.19c.134.23.26.455.395.688q2.272,3.953,4.534,7.9,2.859,4.977,5.713,9.949l1.806,3.159c.129.22.258.445.385.67a1.117,1.117,0,0,1-.87,1.707.316.316,0,0,1-.048.005Zm-13.456-23.58c-.183.324-.364.64-.549.961q-2.429,4.249-4.863,8.482-2.785,4.848-5.564,9.7c-.516.905-1.041,1.813-1.558,2.719a2.146,2.146,0,0,0-.25.445.5.5,0,0,0,.48.665h25.778c.48-.02.563-.488.369-.84-.1-.185-.213-.367-.316-.549q-.664-1.142-1.32-2.3-2.758-4.821-5.528-9.635-2.465-4.294-4.924-8.586c-.189-.334-.385-.675-.579-1.009-.116-.207-.226-.488-.48-.544a.8.8,0,0,0-.129-.013C-10063.284,1453.92-10063.416,1454.185-10063.555,1454.421Zm.574,20.4a1.935,1.935,0,0,1-1.9-1.856.278.278,0,0,1,0-.051.266.266,0,0,1,0-.048,1.915,1.915,0,0,1,1.9-1.856,1.916,1.916,0,0,1,1.9,1.9,1.925,1.925,0,0,1-1.854,1.907Zm-1.3-1.907a1.31,1.31,0,0,0,1.3,1.3,1.309,1.309,0,0,0,1.295-1.3,1.313,1.313,0,0,0-1.265-1.3h-.03A1.315,1.315,0,0,0-10064.278,1472.915Zm1.308-2.63h-.061a1.928,1.928,0,0,1-1.849-1.735c-.021-.255-.008-.511-.008-.766v-6.355a4.911,4.911,0,0,1,.086-1.553,1.916,1.916,0,0,1,1.406-1.29,1.927,1.927,0,0,1,1.844.6,2.654,2.654,0,0,1,.476,1.856v7.238a1.948,1.948,0,0,1-1.856,2Zm-1.265-10.172a2.377,2.377,0,0,0-.043.584v7.329c0,.116,0,.238,0,.354a1.314,1.314,0,0,0,1.295,1.3,1.309,1.309,0,0,0,1.292-1.12c.006-.139.006-.281.006-.422v-7.676a1.3,1.3,0,0,0-.967-1.265,1.333,1.333,0,0,0-.315-.038A1.284,1.284,0,0,0-10064.235,1460.113Z" transform="translate(10077.131 -1453.164)" fill="#093145" stroke="#093145" stroke-width="0.3"/>
</svg>
