<svg xmlns="http://www.w3.org/2000/svg" width="28.301" height="28.3" viewBox="0 0 28.301 28.3">
  <path id="União_9" data-name="União 9" d="M-10071.657,1476a.341.341,0,0,1-.342-.342v-27.316a.341.341,0,0,1,.342-.342h7.884a.342.342,0,0,1,.28.147l2.358,3.415a.34.34,0,0,1,.063.2v1.365h13.365a2.049,2.049,0,0,1,2.288-.749,2.051,2.051,0,0,1,1.42,1.944,2.049,2.049,0,0,1-1.707,2.018v7.2h1.365a.342.342,0,0,1,.342.342v3.415a.342.342,0,0,1-.342.342h-1.365v.809a2.049,2.049,0,0,1,1.707,2.018v.072a2.05,2.05,0,0,1-2.049,2.049,2.05,2.05,0,0,1-2.049-2.049.341.341,0,0,1,.341-.341.306.306,0,0,1,.157.044.345.345,0,0,1,.185.3,1.367,1.367,0,0,0,1.366,1.366,1.366,1.366,0,0,0,1.365-1.366v-.072a1.365,1.365,0,0,0-1.365-1.365.341.341,0,0,1-.342-.342v-1.119h-1.366a.342.342,0,0,1-.341-.342v-3.415a.342.342,0,0,1,.341-.342h1.366v-7.2a2.049,2.049,0,0,1-1.317-.823h-13.365v3.074a.342.342,0,0,1-.342.342h-2.759l1.393,16.731a.207.207,0,0,1-.027.1.286.286,0,0,1,0,.058.415.415,0,0,1-.062.1h-.017a.263.263,0,0,1-.082.058h-.031a.293.293,0,0,1-.123.028Zm1.875-.683h4.888l-2.5-1C-10068.273,1474.7-10069.1,1475.04-10069.782,1475.317Zm-1.534-.123c.581-.218,1.707-.686,3.025-1.243l-3.025-1.181Zm4.824-1.243,2.985,1.185-.2-2.38Zm-4.281-1.741,3.37,1.365c1.048-.444,2.145-.915,3.115-1.332l-3.319-1.365Zm-.543-.485,2.834-1.2-2.834-1.17Zm4.592-1.222,2.931,1.219-.2-2.39Zm-4.065-1.674,3.183,1.308,3.048-1.308-3.186-1.365Zm3.913-1.744,2.8,1.222-.182-2.383Zm-4.439,1.219,2.731-1.2-2.731-1.164Zm23.9-1.349h2.731v-2.732h-2.731Zm-23.414-1.55,3.073,1.315,2.934-1.315-3.074-1.365Zm-.488-.522,2.6-1.2-2.6-1.154Zm4.248-1.208,2.7,1.2-.2-2.353Zm-3.776-1.674,2.947,1.3,2.823-1.3-2.953-1.365Zm-.472-.543,2.482-1.192-2.482-1.147Zm4.081-1.2,2.584,1.192-.194-2.336Zm-.8-.376,1.99-.955h-4.06Zm-3.282-1.639h9.561v-6.382l-2.2-3.179h-7.362Zm23.9-3.923a1.366,1.366,0,0,0,1.366,1.365v0a1.365,1.365,0,0,0,1.365-1.362,1.366,1.366,0,0,0-1.365-1.366A1.367,1.367,0,0,0-10047.414,1454.321Zm-13.658.508h13.044a1.94,1.94,0,0,1,0-1.025h-13.044Zm-6.409,1.455a.341.341,0,0,1-.341-.342v-5.975a.34.34,0,0,1,.341-.342h2.182a.343.343,0,0,1,.273.14l2.182,2.988a.339.339,0,0,1,.064.2v2.988a.342.342,0,0,1-.342.342Zm.342-.684h3.676v-2.537l-2.011-2.756h-1.665Z" transform="translate(10072.149 -1447.85)" fill="#093145" stroke="#093144" stroke-width="0.3"/>
</svg>
