<svg xmlns="http://www.w3.org/2000/svg" width="29.31" height="18.3" viewBox="0 0 29.31 18.3">
  <path id="Caminho_4043" data-name="Caminho 4043" d="M28.7,30.594a4.264,4.264,0,0,0,1.94-3.564,4.378,4.378,0,0,0-8.753,0,4.263,4.263,0,0,0,1.935,3.561,7.994,7.994,0,0,0-1.064.424,3.22,3.22,0,0,0-5.69-.483,8.525,8.525,0,0,0-1.332-.513A4.565,4.565,0,0,0,17.991,26.1a4.682,4.682,0,0,0-9.363,0,4.565,4.565,0,0,0,2.265,3.925,8.388,8.388,0,0,0-5.856,6.143,1.5,1.5,0,0,0,1.475,1.816h7.8a5.442,5.442,0,0,0-.156.681.734.734,0,0,0,.73.845h9.8a.734.734,0,0,0,.73-.845,5.441,5.441,0,0,0-.156-.681h7.235a1.5,1.5,0,0,0,1.463-1.862A7.845,7.845,0,0,0,28.7,30.594ZM22.527,27.03a3.733,3.733,0,0,1,7.464,0,3.659,3.659,0,0,1-2.2,3.333,7.983,7.983,0,0,0-3.068,0A3.658,3.658,0,0,1,22.527,27.03Zm-2.742,2.639a2.53,2.53,0,0,1,2.552,2.5,2.479,2.479,0,0,1-.987,1.971,5.811,5.811,0,0,0-3.131,0,2.48,2.48,0,0,1-.987-1.971A2.53,2.53,0,0,1,19.785,29.669ZM9.273,26.1a4.038,4.038,0,1,1,5.468,3.7,8.586,8.586,0,0,0-2.863,0A3.964,3.964,0,0,1,9.273,26.1ZM6.513,37.349a.867.867,0,0,1-.674-.317.848.848,0,0,1-.172-.729,7.887,7.887,0,0,1,11.116-5.2,3.071,3.071,0,0,0,.745,3.286,5.647,5.647,0,0,0-2.989,2.96H6.513Zm18.237,1.5a.086.086,0,0,1-.068.031h-9.8a.085.085,0,0,1-.068-.031.107.107,0,0,1-.024-.088,5.065,5.065,0,0,1,9.98,0A.107.107,0,0,1,24.75,38.845Zm8.415-1.817a.847.847,0,0,1-.674.321H25.031a5.649,5.649,0,0,0-2.989-2.96,3.053,3.053,0,0,0,.89-2.752,7.35,7.35,0,0,1,3.328-.792,7.235,7.235,0,0,1,7.069,5.425A.868.868,0,0,1,33.166,37.028Z" transform="translate(-4.846 -21.358)" fill="#093145" stroke="#093145" stroke-width="0.3"/>
</svg>
