<svg xmlns="http://www.w3.org/2000/svg" width="27" height="27" viewBox="0 0 27 27">
  <g id="Grupo_5456" data-name="Grupo 5456" transform="translate(-592 -2351.914)">
    <g id="cpu" transform="translate(592 2351.914)">
      <path id="Caminho_4064" data-name="Caminho 4064" d="M28.86,30.784H11.924A1.927,1.927,0,0,1,10,28.86V11.924A1.927,1.927,0,0,1,11.924,10H28.86a1.927,1.927,0,0,1,1.924,1.924V28.86A1.927,1.927,0,0,1,28.86,30.784ZM11.924,10.77a1.155,1.155,0,0,0-1.155,1.155V28.86a1.155,1.155,0,0,0,1.155,1.155H28.86a1.155,1.155,0,0,0,1.155-1.155V11.924A1.155,1.155,0,0,0,28.86,10.77Z" transform="translate(-6.892 -6.892)" fill="#093145"/>
      <path id="Caminho_4068" data-name="Caminho 4068" d="M53.388,5.885A.388.388,0,0,1,53,5.5V2.388a.388.388,0,1,1,.777,0V5.5A.388.388,0,0,1,53.388,5.885Z" transform="translate(-33.333 -2)" fill="#093145"/>
      <path id="Caminho_4069" data-name="Caminho 4069" d="M44.888,5.885A.388.388,0,0,1,44.5,5.5V2.388a.388.388,0,0,1,.777,0V5.5A.388.388,0,0,1,44.888,5.885Z" transform="translate(-28.111 -2)" fill="#093145"/>
      <path id="Caminho_4070" data-name="Caminho 4070" d="M36.388,5.885A.388.388,0,0,1,36,5.5V2.388a.388.388,0,1,1,.777,0V5.5A.388.388,0,0,1,36.388,5.885Z" transform="translate(-22.888 -2)" fill="#093145"/>
      <path id="Caminho_4071" data-name="Caminho 4071" d="M27.888,5.885A.388.388,0,0,1,27.5,5.5V2.388a.388.388,0,1,1,.777,0V5.5A.388.388,0,0,1,27.888,5.885Z" transform="translate(-17.666 -2)" fill="#093145"/>
      <path id="Caminho_4072" data-name="Caminho 4072" d="M19.388,5.885A.388.388,0,0,1,19,5.5V2.388a.388.388,0,1,1,.777,0V5.5A.388.388,0,0,1,19.388,5.885Z" transform="translate(-12.444 -2)" fill="#093145"/>
      <path id="Caminho_4073" data-name="Caminho 4073" d="M53.388,65.885A.388.388,0,0,1,53,65.5V62.388a.388.388,0,1,1,.777,0V65.5A.388.388,0,0,1,53.388,65.885Z" transform="translate(-33.333 -38.885)" fill="#093145"/>
      <path id="Caminho_4074" data-name="Caminho 4074" d="M44.888,65.885A.388.388,0,0,1,44.5,65.5V62.388a.388.388,0,1,1,.777,0V65.5A.388.388,0,0,1,44.888,65.885Z" transform="translate(-28.111 -38.885)" fill="#093145"/>
      <path id="Caminho_4075" data-name="Caminho 4075" d="M36.388,65.885A.388.388,0,0,1,36,65.5V62.388a.388.388,0,1,1,.777,0V65.5A.388.388,0,0,1,36.388,65.885Z" transform="translate(-22.888 -38.885)" fill="#093145"/>
      <path id="Caminho_4076" data-name="Caminho 4076" d="M27.888,65.885A.388.388,0,0,1,27.5,65.5V62.388a.388.388,0,1,1,.777,0V65.5A.388.388,0,0,1,27.888,65.885Z" transform="translate(-17.666 -38.885)" fill="#093145"/>
      <path id="Caminho_4077" data-name="Caminho 4077" d="M19.388,65.885A.388.388,0,0,1,19,65.5V62.388a.388.388,0,1,1,.777,0V65.5A.388.388,0,0,1,19.388,65.885Z" transform="translate(-12.444 -38.885)" fill="#093145"/>
      <path id="Caminho_4078" data-name="Caminho 4078" d="M65.5,53.777H62.388a.388.388,0,1,1,0-.777H65.5a.388.388,0,1,1,0,.777Z" transform="translate(-38.885 -33.333)" fill="#093145"/>
      <path id="Caminho_4079" data-name="Caminho 4079" d="M65.5,45.277H62.388a.388.388,0,1,1,0-.777H65.5a.388.388,0,1,1,0,.777Z" transform="translate(-38.885 -28.111)" fill="#093145"/>
      <path id="Caminho_4080" data-name="Caminho 4080" d="M65.5,36.777H62.388a.388.388,0,1,1,0-.777H65.5a.388.388,0,1,1,0,.777Z" transform="translate(-38.885 -22.888)" fill="#093145"/>
      <path id="Caminho_4081" data-name="Caminho 4081" d="M65.5,28.277H62.388a.388.388,0,1,1,0-.777H65.5a.388.388,0,1,1,0,.777Z" transform="translate(-38.885 -17.666)" fill="#093145"/>
      <path id="Caminho_4082" data-name="Caminho 4082" d="M65.5,19.777H62.388a.388.388,0,1,1,0-.777H65.5a.388.388,0,1,1,0,.777Z" transform="translate(-38.885 -12.444)" fill="#093145"/>
      <path id="Caminho_4083" data-name="Caminho 4083" d="M5.5,53.777H2.388a.388.388,0,1,1,0-.777H5.5a.388.388,0,1,1,0,.777Z" transform="translate(-2 -33.333)" fill="#093145"/>
      <path id="Caminho_4084" data-name="Caminho 4084" d="M5.5,45.277H2.388a.388.388,0,0,1,0-.777H5.5a.388.388,0,0,1,0,.777Z" transform="translate(-2 -28.111)" fill="#093145"/>
      <path id="Caminho_4085" data-name="Caminho 4085" d="M5.5,36.777H2.388a.388.388,0,1,1,0-.777H5.5a.388.388,0,1,1,0,.777Z" transform="translate(-2 -22.888)" fill="#093145"/>
      <path id="Caminho_4086" data-name="Caminho 4086" d="M5.5,28.277H2.388a.388.388,0,1,1,0-.777H5.5a.388.388,0,1,1,0,.777Z" transform="translate(-2 -17.666)" fill="#093145"/>
      <path id="Caminho_4087" data-name="Caminho 4087" d="M5.5,19.777H2.388a.388.388,0,1,1,0-.777H5.5a.388.388,0,1,1,0,.777Z" transform="translate(-2 -12.444)" fill="#093145"/>
    </g>
    <g id="Retângulo_6067" data-name="Retângulo 6067" transform="translate(597.625 2357.636)" fill="none" stroke="#093145" stroke-width="0.7">
      <rect width="15.75" height="15.75" rx="2" stroke="none"/>
      <rect x="0.35" y="0.35" width="15.05" height="15.05" rx="1.65" fill="none"/>
    </g>
  </g>
</svg>
