<svg xmlns="http://www.w3.org/2000/svg" width="28.648" height="16.045" viewBox="0 0 28.648 16.045">
  <g id="Grupo_5461" data-name="Grupo 5461" transform="translate(-75 -153.045)">
    <path id="Caminho_4094" data-name="Caminho 4094" d="M12.469,8.2l-1.964-.945A2.571,2.571,0,0,0,9.392,7H8.521a2.541,2.541,0,0,0-1.761.7l-1.031.992A2.349,2.349,0,0,0,5,10.387v6.108a2.372,2.372,0,0,0,1.109,1.993l4.814,3.087a2.569,2.569,0,0,0,2.975-.153l5.189-4.391" transform="translate(75.584 146.545)" fill="none" stroke="#093145" stroke-linecap="round" stroke-width="1"/>
    <path id="Caminho_4095" data-name="Caminho 4095" d="M16.1,14.363a2.49,2.49,0,0,0-3.225-.675L10.566,15a1.9,1.9,0,0,1-2.278-.308h0a1.9,1.9,0,0,1,.127-2.8L13.6,7.577A2.49,2.49,0,0,1,15.191,7h1a2.49,2.49,0,0,1,1.113.263L20.383,8.8a2.49,2.49,0,0,1,1.376,2.227v3.415a2.49,2.49,0,0,1-4.485,1.49Z" transform="translate(76.312 146.545)" fill="none" stroke="#093145" stroke-linecap="square" stroke-width="1"/>
    <path id="Caminho_4096" data-name="Caminho 4096" d="M1,19.2V8" transform="translate(74.5 146.79)" fill="none" stroke="#093145" stroke-linecap="square" stroke-width="1"/>
    <path id="Caminho_4097" data-name="Caminho 4097" d="M1,19.2V8" transform="translate(74.5 146.79)" fill="none" stroke="#093145" stroke-linecap="square" stroke-width="1"/>
    <path id="Caminho_4098" data-name="Caminho 4098" d="M23,19.2V8" transform="translate(80.148 146.79)" fill="none" stroke="#093145" stroke-linecap="square" stroke-width="1"/>
  </g>
</svg>
