<svg xmlns="http://www.w3.org/2000/svg" width="22.017" height="27.811" viewBox="0 0 22.017 27.811">
  <g id="security" transform="translate(-0.055 0)">
    <path id="Caminho_4061" data-name="Caminho 4061" d="M21.791,5.631,11.165.061a.536.536,0,0,0-.5,0L.329,5.634a.519.519,0,0,0-.275.456v7.275A15.058,15.058,0,0,0,9.234,27.152l1.434.615a.537.537,0,0,0,.421,0l1.616-.686a15.033,15.033,0,0,0,9.366-13.86V6.09A.519.519,0,0,0,21.791,5.631Zm-.778,7.59a14,14,0,0,1-8.722,12.9l0,0-1.407.6L9.657,26.2A14.016,14.016,0,0,1,1.112,13.365V6.4l9.807-5.287L21.013,6.4Zm0,0" transform="translate(0 0)" fill="#093145"/>
    <path id="Caminho_4062" data-name="Caminho 4062" d="M80.886,148.437a.606.606,0,0,0-.836-.064.562.562,0,0,0-.066.81l3.132,3.554a.606.606,0,0,0,.825.073l7.3-5.751a.562.562,0,0,0,.086-.808.606.606,0,0,0-.834-.083l-6.846,5.4Zm0,0" transform="translate(-74.405 -135.511)" fill="#093145"/>
  </g>
</svg>
