<svg xmlns="http://www.w3.org/2000/svg" width="24.415" height="27" viewBox="0 0 24.415 27">
  <path id="União_10" data-name="União 10" d="M-10064.428,1469.433a14.63,14.63,0,0,1-3.3.426c-1.877,0-3.277-.523-3.912-1.608-.812-1.385-.257-3.385,1.562-5.627.3-.376.639-.752,1-1.127-2.464-2.572-3.528-5.093-2.561-6.746.811-1.385,2.843-1.912,5.719-1.481.482.072.98.17,1.49.291,1.025-3.39,2.707-5.56,4.64-5.56s3.614,2.17,4.64,5.56c.51-.122,1.008-.219,1.49-.291,2.878-.432,4.907.1,5.719,1.481.966,1.653-.1,4.177-2.565,6.75,2.466,2.573,3.531,5.1,2.565,6.75-.636,1.085-2.036,1.608-3.912,1.608a14.622,14.622,0,0,1-3.3-.426c-1.025,3.394-2.707,5.567-4.641,5.567S-10063.4,1472.827-10064.428,1469.433Zm4.641,4.442c1.273,0,2.636-1.776,3.536-4.734a27.349,27.349,0,0,1-3.536-1.318,27.4,27.4,0,0,1-3.536,1.318C-10062.424,1472.1-10061.063,1473.875-10059.787,1473.875Zm10.859-6.188c.638-1.09-.24-3.14-2.387-5.388a26.9,26.9,0,0,1-2.924,2.362,26.485,26.485,0,0,1-.611,3.681C-10051.8,1469.052-10049.563,1468.777-10048.928,1467.688Zm-20.256-4.362c-1.483,1.829-2.018,3.419-1.466,4.362.638,1.089,2.877,1.365,5.925.655a26.47,26.47,0,0,1-.611-3.68,26.944,26.944,0,0,1-2.933-2.371Q-10068.767,1462.808-10069.184,1463.326Zm13.229,4.725a24.532,24.532,0,0,0,.474-2.556q-.7.448-1.455.877t-1.5.805A25.294,25.294,0,0,0-10055.955,1468.051Zm-7.664,0a25.28,25.28,0,0,0,2.478-.874q-.744-.377-1.5-.805t-1.455-.876A24.788,24.788,0,0,0-10063.619,1468.051Zm1.552-2.653c.773.44,1.536.835,2.28,1.184q1.118-.524,2.28-1.184c.772-.44,1.5-.895,2.18-1.356.065-.812.1-1.66.1-2.542s-.035-1.729-.1-2.54c-.679-.462-1.407-.916-2.18-1.357s-1.521-.828-2.28-1.185c-.76.357-1.522.753-2.28,1.185s-1.487.886-2.18,1.355c-.065.812-.1,1.66-.1,2.542s.035,1.73.1,2.542C-10063.567,1464.5-10062.84,1464.958-10062.067,1465.4Zm4.851.486h-.006Zm-8.229-2.7q-.041-.826-.042-1.683c0-.572.016-1.135.042-1.685a25.3,25.3,0,0,0-2.015,1.68A25.155,25.155,0,0,0-10065.445,1463.183Zm11.358-1.683q0,.857-.042,1.683a25.035,25.035,0,0,0,2.008-1.682,24.814,24.814,0,0,0-2.008-1.682Q-10054.088,1460.644-10054.087,1461.5Zm2.773-.8c2.146-2.248,3.023-4.3,2.386-5.388-.409-.7-1.428-1.067-2.883-1.067a11.431,11.431,0,0,0-1.678.135c-.44.066-.9.155-1.364.265a26.316,26.316,0,0,1,.614,3.692A27.041,27.041,0,0,1-10051.313,1460.7Zm-19.336-5.388c-.637,1.089.241,3.138,2.385,5.385a27.584,27.584,0,0,1,2.929-2.36,26.456,26.456,0,0,1,.613-3.691q-.7-.165-1.366-.265a11.365,11.365,0,0,0-1.676-.135C-10069.22,1454.247-10070.239,1454.614-10070.649,1455.313Zm13.713,1.315q.751.428,1.455.877a24.149,24.149,0,0,0-.476-2.565,25.541,25.541,0,0,0-2.48.881Q-10057.686,1456.2-10056.937,1456.629Zm-7.156.877c.472-.3.958-.594,1.455-.877s1-.553,1.5-.807a25.692,25.692,0,0,0-2.48-.881A24.388,24.388,0,0,0-10064.093,1457.506Zm4.306-2.329a27.813,27.813,0,0,1,3.533-1.322c-.9-2.956-2.26-4.73-3.533-4.73s-2.634,1.774-3.533,4.73A27.813,27.813,0,0,1-10059.787,1455.177Z" transform="translate(10072 -1448)" fill="#093145"/>
</svg>
