<svg xmlns="http://www.w3.org/2000/svg" width="29" height="18.125" viewBox="0 0 29 18.125">
  <path id="Path_4114_-_Outline" data-name="Path 4114 - Outline" d="M-10051.562,1465.875h-12.3a.517.517,0,0,1-.527-.53v-.854h-7.334a.516.516,0,0,1-.524-.53v-2.26a5.711,5.711,0,0,1,3.247-5.228,3.481,3.481,0,0,1-1.572-2.891,3.564,3.564,0,0,1,3.594-3.526,3.553,3.553,0,0,1,3.593,3.5,3.523,3.523,0,0,1-1.537,2.883,5.145,5.145,0,0,1,2.057,1.618,6.734,6.734,0,0,1,2.887-2.142,4.439,4.439,0,0,1-2.118-3.765,4.4,4.4,0,0,1,4.4-4.4,4.4,4.4,0,0,1,4.4,4.4,4.371,4.371,0,0,1-2.107,3.766,6.712,6.712,0,0,1,2.829,2.075,5.375,5.375,0,0,1,2-1.556,3.492,3.492,0,0,1-1.522-2.856,3.473,3.473,0,0,1,1.059-2.485,3.606,3.606,0,0,1,2.538-1.041,3.614,3.614,0,0,1,2.534,1.029,3.432,3.432,0,0,1,1.062,2.474,3.513,3.513,0,0,1-1.558,2.9,5.727,5.727,0,0,1,3.227,5.218v2.283a.527.527,0,0,1-.523.53h-7.242v.879l0,.025A.545.545,0,0,1-10051.562,1465.875Zm-1.376-1.06h.851v-2.306a5.808,5.808,0,0,0-5.639-5.953,5.524,5.524,0,0,0-4.647,2.614.559.559,0,0,1-.123.2,6.2,6.2,0,0,0-.846,3.138v2.306h.947v-1.476a.514.514,0,0,1,.522-.53.517.517,0,0,1,.526.53v1.476h7.356v-1.476a.517.517,0,0,1,.527-.53.516.516,0,0,1,.524.53Zm7.922-1.384h.718v-1.73a4.454,4.454,0,0,0-4.263-4.615,4.166,4.166,0,0,0-3.391,1.838,7.263,7.263,0,0,1,.938,3.584v.923h4.948l.028-.814a.528.528,0,0,1,.523-.523.529.529,0,0,1,.526.53v.011Zm-24.412,0h5.038v-.923a7.245,7.245,0,0,1,.894-3.5,4.14,4.14,0,0,0-3.46-1.926,4.445,4.445,0,0,0-4.242,4.615v1.73h.72l-.026-.808a.515.515,0,0,1,.522-.53.518.518,0,0,1,.527.524Zm20.915-12.318a2.581,2.581,0,0,0-1.8.727,2.382,2.382,0,0,0-.745,1.719,2.5,2.5,0,0,0,2.548,2.446,2.568,2.568,0,0,0,1.8-.726,2.38,2.38,0,0,0,.746-1.72A2.5,2.5,0,0,0-10048.514,1451.113Zm-18.467,0a2.5,2.5,0,0,0-2.546,2.447,2.5,2.5,0,0,0,2.546,2.446,2.568,2.568,0,0,0,1.8-.726,2.38,2.38,0,0,0,.746-1.72A2.529,2.529,0,0,0-10066.98,1451.113Zm9.277-2.306a3.35,3.35,0,0,0-3.347,3.346,3.35,3.35,0,0,0,3.347,3.346,3.351,3.351,0,0,0,3.348-3.346A3.351,3.351,0,0,0-10057.7,1448.807Z" transform="translate(10072.249 -1447.75)" fill="#093145"/>
</svg>
