<svg xmlns="http://www.w3.org/2000/svg" width="30" height="21.046" viewBox="0 0 30 21.046">
  <g id="noun_finance_199765" transform="translate(250.6 -365.3)">
    <path id="Caminho_4110" data-name="Caminho 4110" d="M-247.263,377.326c1.85.529,6.905,2.181,6.938,2.214a.629.629,0,0,1,.4.793.629.629,0,0,1-.793.4c-.066-.033-5.088-1.652-6.905-2.181a1.351,1.351,0,0,0-1.421.264l10.209,5.551a3.227,3.227,0,0,0,2.412.264l8.062-2.412a.527.527,0,0,1,.5.066l4.163,2.61a6.864,6.864,0,0,0,1.916-4.1l-7.368-3.172a6.792,6.792,0,0,0-4.361,0l-4.328,1.982a.978.978,0,0,0,.958.661,25.339,25.339,0,0,0,3.932-.43.631.631,0,0,1,.727.5.631.631,0,0,1-.5.727,23.812,23.812,0,0,1-4.2.463,2.231,2.231,0,0,1-2.247-2.214.624.624,0,0,1,.363-.595l4.758-2.181a8.04,8.04,0,0,1,5.286-.033h.033l7.764,3.37a.611.611,0,0,1,.363.562,8.374,8.374,0,0,1-2.676,5.749.61.61,0,0,1-.4.165.637.637,0,0,1-.33-.1l-4.328-2.709-7.764,2.346a4.583,4.583,0,0,1-3.37-.33l-10.8-5.881a.631.631,0,0,1-.3-.76A2.616,2.616,0,0,1-247.263,377.326ZM-239.3,365.3a.627.627,0,0,0-.628.628v1.09h-.2A2.369,2.369,0,0,0-242.5,369.4a2.369,2.369,0,0,0,2.379,2.379h1.619a1.171,1.171,0,0,1,1.156,1.156,1.171,1.171,0,0,1-1.156,1.156h-2.908a.627.627,0,0,0-.628.628.627.627,0,0,0,.628.628h1.487v1.09a.627.627,0,0,0,.628.628.607.607,0,0,0,.628-.628v-1.09h.2a2.369,2.369,0,0,0,2.379-2.379,2.369,2.369,0,0,0-2.379-2.379h-1.619a1.171,1.171,0,0,1-1.156-1.156,1.171,1.171,0,0,1,1.156-1.156h2.841a.627.627,0,0,0,.628-.628.627.627,0,0,0-.628-.628h-1.421v-1.09A.608.608,0,0,0-239.3,365.3Z" fill="#093145"/>
  </g>
</svg>
