<svg xmlns="http://www.w3.org/2000/svg" width="23.655" height="28.386" viewBox="0 0 23.655 28.386">
  <g id="fuel" transform="translate(-2)">
    <path id="Caminho_4029" data-name="Caminho 4029" d="M11.871,24.472H3.591A.592.592,0,0,1,3,23.881V2.591A.592.592,0,0,1,3.591,2H18.967a.592.592,0,0,1,.591.591v9.462a.591.591,0,1,1-1.183,0V3.183H4.183V23.29h7.688a.591.591,0,1,1,0,1.183Z" transform="translate(0.183 0.366)" fill="#093145"/>
    <path id="Caminho_4030" data-name="Caminho 4030" d="M9.14,3.548H5.591A.592.592,0,0,1,5,2.957V1.774A1.776,1.776,0,0,1,6.774,0H7.957A1.776,1.776,0,0,1,9.731,1.774V2.957A.592.592,0,0,1,9.14,3.548ZM6.183,2.366H8.548V1.774a.592.592,0,0,0-.591-.591H6.774a.592.592,0,0,0-.591.591Z" transform="translate(0.548)" fill="#093145"/>
    <path id="Caminho_4031" data-name="Caminho 4031" d="M20.333,3.183H2.591A.591.591,0,1,1,2.591,2H20.333a.591.591,0,0,1,0,1.183Z" transform="translate(0 0.366)" fill="#093145"/>
    <path id="Caminho_4032" data-name="Caminho 4032" d="M12.053,21.183H2.591a.591.591,0,1,1,0-1.183h9.462a.591.591,0,1,1,0,1.183Z" transform="translate(0 3.655)" fill="#093145"/>
    <path id="Caminho_4033" data-name="Caminho 4033" d="M16.784,12.183H2.591a.591.591,0,0,1,0-1.183H16.784a.591.591,0,1,1,0,1.183Z" transform="translate(0 2.01)" fill="#093145"/>
    <path id="Caminho_4034" data-name="Caminho 4034" d="M18.322,26.192A5.329,5.329,0,0,1,13,20.869c0-3.146,4.681-8.448,4.88-8.672a.609.609,0,0,1,.884,0c.2.224,4.881,5.526,4.881,8.672A5.329,5.329,0,0,1,18.322,26.192Zm0-12.694c-1.465,1.749-4.14,5.359-4.14,7.372a4.14,4.14,0,0,0,8.279,0C22.462,18.856,19.788,15.246,18.322,13.5Z" transform="translate(2.01 2.194)" fill="#093145"/>
  </g>
</svg>
