<svg xmlns="http://www.w3.org/2000/svg" width="28.832" height="25.598" viewBox="0 0 28.832 25.598">
  <path id="Caminho_4138" data-name="Caminho 4138" d="M15.4,963.347a14.978,14.978,0,0,0-6.555,1.368c-1.7.85-2.837,2.069-2.837,3.505-.021,5-.01,10.459-.01,15.562,0,1.429,1.134,2.644,2.837,3.5a15.013,15.013,0,0,0,6.565,1.368,15.669,15.669,0,0,0,5.815-1.044,9.079,9.079,0,1,0,4.235-17.111c-.221,0-.441.015-.659.03.01-1.651.01-1,0-2.3,0-1.436-1.137-2.655-2.837-3.505a14.978,14.978,0,0,0-6.555-1.368Zm0,.659a14.411,14.411,0,0,1,6.271,1.3c1.585.793,2.482,1.848,2.482,2.918s-.9,2.125-2.482,2.918a14.416,14.416,0,0,1-6.271,1.287,14.464,14.464,0,0,1-6.281-1.287c-1.585-.793-2.472-1.847-2.472-2.918s.887-2.125,2.472-2.918A14.459,14.459,0,0,1,15.4,964.005Zm-8.753,6.008a6.216,6.216,0,0,0,2.2,1.7,14.972,14.972,0,0,0,6.555,1.368,16.735,16.735,0,0,0,4.306-.547A9.1,9.1,0,0,0,17,976.244c-.52.048-1.051.081-1.6.081a14.421,14.421,0,0,1-6.271-1.3c-1.584-.792-2.482-1.84-2.482-2.918v-2.1Zm17.5.01v.557c-.219.032-.435.074-.648.122A4.672,4.672,0,0,0,24.143,970.023Zm1.307,1.114a8.429,8.429,0,1,1-8.429,8.429A8.424,8.424,0,0,1,25.45,971.137ZM25.41,973.4a.324.324,0,0,0-.284.334v1.307a3.158,3.158,0,0,0-1.722.628,2.262,2.262,0,0,0-.871,1.793,1.884,1.884,0,0,0,.983,1.672,9.342,9.342,0,0,0,1.611.648v3.657a2.065,2.065,0,0,1-1.955-1.256.327.327,0,1,0-.628.182,2.732,2.732,0,0,0,2.583,1.722V985.4a.324.324,0,0,0,.648,0V984.1a3.182,3.182,0,0,0,1.722-.638,2.242,2.242,0,0,0,.871-1.783,1.9,1.9,0,0,0-.983-1.682,9.333,9.333,0,0,0-1.611-.649V975.7a2.055,2.055,0,0,1,1.955,1.246.327.327,0,1,0,.628-.182,2.722,2.722,0,0,0-2.583-1.712v-1.317a.324.324,0,0,0-.365-.334ZM6.647,973.9a6.16,6.16,0,0,0,2.188,1.7,15.01,15.01,0,0,0,6.565,1.368c.465,0,.921-.027,1.368-.061a9.041,9.041,0,0,0-.4,2.654c0,.208.007.414.02.618-.326.019-.656.031-.993.031a14.419,14.419,0,0,1-6.271-1.3c-1.584-.792-2.482-1.84-2.482-2.918ZM25.126,975.7v3.4a8.021,8.021,0,0,1-1.287-.527,1.124,1.124,0,0,1-.659-1.115,1.578,1.578,0,0,1,.628-1.286A2.5,2.5,0,0,1,25.126,975.7Zm-18.479,2.1a6.161,6.161,0,0,0,2.188,1.7,15.012,15.012,0,0,0,6.565,1.368c.362,0,.714-.011,1.064-.03a9.013,9.013,0,0,0,1.054,3.141,16.907,16.907,0,0,1-2.117.132,14.423,14.423,0,0,1-6.271-1.3c-1.584-.792-2.482-1.84-2.482-2.918Zm19.128,2.229a8.02,8.02,0,0,1,1.287.527,1.138,1.138,0,0,1,.659,1.125,1.559,1.559,0,0,1-.628,1.276,2.521,2.521,0,0,1-1.317.486ZM6.647,981.684a6.158,6.158,0,0,0,2.188,1.7,15.01,15.01,0,0,0,6.565,1.368,17.553,17.553,0,0,0,2.482-.182,9.131,9.131,0,0,0,2.634,2.614A15.614,15.614,0,0,1,15.4,988a14.425,14.425,0,0,1-6.271-1.3c-1.585-.792-2.482-1.84-2.482-2.918Z" transform="translate(-5.846 -963.197)" fill="#093145" stroke="#093144" stroke-width="0.3"/>
</svg>
