<svg xmlns="http://www.w3.org/2000/svg" width="29.999" height="24.246" viewBox="0 0 29.999 24.246">
  <path id="União_8" data-name="União 8" d="M-10063.367,1472.246c-4.341,0-7.614-4.274-7.96-8.279l-.654-7.334a2.5,2.5,0,0,1,.766-2.123,2.649,2.649,0,0,1,2.314-.539,27.756,27.756,0,0,0,9.9.218c-.1-1.146-.2-2.3-.3-3.453a2.5,2.5,0,0,1,.768-2.128,2.663,2.663,0,0,1,2.315-.534,27.905,27.905,0,0,0,11.1,0,2.658,2.658,0,0,1,2.322.539,2.474,2.474,0,0,1,.77,2.128c-.1,1.272-.221,2.556-.329,3.834l-.306,3.495c-.344,3.995-3.625,8.279-7.988,8.279l-.066.02a7.373,7.373,0,0,1-4.7-1.852c-.58,3.828-3.757,7.729-7.9,7.729Zm.029-1h.03c3.794,0,6.659-3.806,6.99-7.365l.032-.373a.518.518,0,0,1,.025-.3l.586-6.685a1.5,1.5,0,0,0-.434-1.292,1.63,1.63,0,0,0-1.454-.3,28.787,28.787,0,0,1-11.484,0,1.639,1.639,0,0,0-1.458.3,1.489,1.489,0,0,0-.478,1.292l.647,7.356c.3,3.559,3.177,7.365,6.99,7.365-.01,0-.01,0,0,0Zm12.633-5.877h.065c3.8,0,6.665-3.8,6.99-7.366l.3-3.495.326-3.87a1.5,1.5,0,0,0-.431-1.292,1.634,1.634,0,0,0-1.454-.3,28.93,28.93,0,0,1-11.483,0,1.637,1.637,0,0,0-1.448.3,1.5,1.5,0,0,0-.464,1.3q.136,1.694.292,3.373l.213-.042a2.662,2.662,0,0,1,2.316.539,2.465,2.465,0,0,1,.773,2.123l-.574,6.6A6.362,6.362,0,0,0-10050.705,1465.371Zm-14.58,2.247a2.94,2.94,0,0,1-.86-2.052v-.758a.5.5,0,0,1,.162-.37.492.492,0,0,1,.377-.13,27.583,27.583,0,0,0,4.54,0,.5.5,0,0,1,.375.13.5.5,0,0,1,.164.37v.758a2.913,2.913,0,0,1-.864,2.052,2.744,2.744,0,0,1-1.941.824A2.728,2.728,0,0,1-10065.285,1467.618Zm.139-2.052a1.92,1.92,0,0,0,.57,1.348,1.747,1.747,0,0,0,1.238.529h0a1.757,1.757,0,0,0,1.238-.529,1.933,1.933,0,0,0,.57-1.348v-.225a29.392,29.392,0,0,1-3.622,0Zm12.129-3.1a.5.5,0,0,1-.454-.5v-.76a2.731,2.731,0,0,1,.839-1.934,2.728,2.728,0,0,1,1.967-.757,2.722,2.722,0,0,1,1.97.756,2.719,2.719,0,0,1,.836,1.935v.76a.5.5,0,0,1-.453.5c-.783.06-1.569.095-2.353.095S-10052.232,1462.53-10053.018,1462.47Zm.544-1.258v.3a27.483,27.483,0,0,0,3.615,0v-.3a1.813,1.813,0,0,0-1.808-1.677A1.813,1.813,0,0,0-10052.474,1461.211Zm-9.822-.919a1.461,1.461,0,0,1,.8-1.258,2.9,2.9,0,0,1,2.626-.114,1.171,1.171,0,0,1,.619,1.043.5.5,0,0,1-.5.5.5.5,0,0,1-.5-.5c0-.044,0-.1-.12-.174a1.95,1.95,0,0,0-1.628.12c-.118.069-.318.209-.318.389a.5.5,0,0,1-.479.495A.5.5,0,0,1-10062.3,1460.292Zm-3.08,0c0-.179-.205-.319-.325-.388a1.938,1.938,0,0,0-1.622-.12c-.122.07-.12.13-.12.174a.5.5,0,0,1-.5.5.5.5,0,0,1-.5-.5,1.162,1.162,0,0,1,.616-1.042,2.9,2.9,0,0,1,2.626.113,1.472,1.472,0,0,1,.823,1.258.5.5,0,0,1-.5.5v0A.5.5,0,0,1-10065.376,1460.292Zm17.521-5.491h-.055a2.258,2.258,0,0,1-1.054-.26,1.263,1.263,0,0,1-.663-1.113.5.5,0,0,1,.5-.5.5.5,0,0,1,.5.5.26.26,0,0,0,.166.25,1.8,1.8,0,0,0,1.553-.11.611.611,0,0,0,.354-.469.5.5,0,0,1,.5-.5.5.5,0,0,1,.5.5,1.537,1.537,0,0,1-.848,1.333,2.948,2.948,0,0,1-1.427.37Zm-7.069-.375a1.534,1.534,0,0,1-.849-1.333.5.5,0,0,1,.5-.5.5.5,0,0,1,.5.5.6.6,0,0,0,.353.468,1.8,1.8,0,0,0,1.553.111.26.26,0,0,0,.166-.25.5.5,0,0,1,.5-.5.5.5,0,0,1,.5.5,1.263,1.263,0,0,1-.664,1.113,2.254,2.254,0,0,1-1.06.265h-.056A2.949,2.949,0,0,1-10054.924,1454.426Z" transform="translate(10072 -1448)" fill="#093145"/>
</svg>
