<svg xmlns="http://www.w3.org/2000/svg" width="28.434" height="25.07" viewBox="0 0 28.434 25.07">
  <path id="Icon_awesome-leaf" data-name="Icon awesome-leaf" d="M26.013.454A.746.746,0,0,0,24.665.4a8.19,8.19,0,0,1-7.139,4.1h-3.81a9.074,9.074,0,0,0-9.144,9,9.123,9.123,0,0,0,.071.961A23.041,23.041,0,0,1,18.289,10.5a.75.75,0,1,1,0,1.5C6.316,12,1.239,19.22.116,21.934a1.492,1.492,0,0,0,.833,1.95,1.535,1.535,0,0,0,1.991-.811,12.349,12.349,0,0,1,3.424-4.246,9.182,9.182,0,0,0,8.329,3.618c7.477-.534,12.739-7.133,12.739-15.214A16.812,16.812,0,0,0,26.013.454Z" transform="translate(0.502 0.502)" fill="none" stroke="#093145" stroke-width="1"/>
</svg>
