<svg xmlns="http://www.w3.org/2000/svg" width="27.398" height="21.84" viewBox="0 0 27.398 21.84">
  <g id="cart-add" transform="translate(-1.5 -4.5)">
    <path id="Caminho_3955" data-name="Caminho 3955" d="M28.324,6,26.488,17.341A1.372,1.372,0,0,1,25.141,18.5H8.881a1.372,1.372,0,0,1-1.346-1.163L5.887,7.163A1.372,1.372,0,0,0,4.54,6H2" transform="translate(0 0.389)" fill="none" stroke="#093145" stroke-linecap="square" stroke-width="1"/>
    <path id="Caminho_3956" data-name="Caminho 3956" d="M8.365,20.779A1.39,1.39,0,1,0,7,19.389,1.377,1.377,0,0,0,8.365,20.779Z" transform="translate(1.823 5.061)" fill="none" stroke="#093145" stroke-linecap="square" stroke-width="1"/>
    <path id="Caminho_3957" data-name="Caminho 3957" d="M18.365,20.779A1.39,1.39,0,1,0,17,19.389,1.377,1.377,0,0,0,18.365,20.779Z" transform="translate(5.468 5.061)" fill="none" stroke="#093145" stroke-linecap="square" stroke-width="1"/>
    <path id="Caminho_3958" data-name="Caminho 3958" d="M18.187,8H10" transform="translate(2.916 1.168)" fill="none" stroke="#093145" stroke-linecap="square" stroke-width="1"/>
    <path id="Caminho_3959" data-name="Caminho 3959" d="M13,5v8.336" transform="translate(4.01)" fill="none" stroke="#093145" stroke-linecap="square" stroke-width="1"/>
  </g>
</svg>
