<svg xmlns="http://www.w3.org/2000/svg" width="18.766" height="24.589" viewBox="0 0 18.766 24.589">
  <g id="Grupo_5474" data-name="Grupo 5474" transform="translate(-83.85 -1132.649)">
    <g id="Grupo_5477" data-name="Grupo 5477" transform="translate(90.777 1136.81)">
      <g id="Grupo_5476" data-name="Grupo 5476" transform="translate(0 0)">
        <g id="Grupo_5475" data-name="Grupo 5475">
          <g id="Grupo_5474-2" data-name="Grupo 5474" transform="translate(0 0.819)">
            <path id="Path_4138" data-name="Path 4138" d="M25.057,22.12A2.458,2.458,0,0,1,22.6,19.665a.251.251,0,1,1,.5,0,1.954,1.954,0,1,0,1.954-1.954,2.455,2.455,0,1,1,2.455-2.455.251.251,0,1,1-.5,0,1.954,1.954,0,1,0-1.954,1.954,2.455,2.455,0,0,1,0,4.911Z" transform="translate(-22.601 -12.8)" fill="#093145" stroke="#093145" stroke-linecap="round" stroke-width="0.3"/>
          </g>
          <path id="Line_188" data-name="Line 188" d="M-.249.821A.251.251,0,0,1-.5.57V-.249A.251.251,0,0,1-.249-.5.251.251,0,0,1,0-.249V.57A.251.251,0,0,1-.249.821Z" transform="translate(2.705 0.5)" fill="#093145" stroke="#093145" stroke-linecap="round" stroke-width="0.3"/>
          <path id="Line_189" data-name="Line 189" d="M-.249.821A.251.251,0,0,1-.5.57V-.249A.251.251,0,0,1-.249-.5.251.251,0,0,1,0-.249V.57A.251.251,0,0,1-.249.821Z" transform="translate(2.705 10.138)" fill="#093145" stroke="#093145" stroke-linecap="round" stroke-width="0.3"/>
        </g>
      </g>
    </g>
    <path id="União_13" data-name="União 13" d="M11.138,24.288H.9a.9.9,0,0,1-.9-.9V.9A.9.9,0,0,1,.9,0H17.568a.9.9,0,0,1,.9.9V16.983a.248.248,0,0,1-.092.192L11.347,24.2a.25.25,0,0,1-.188.088ZM.5.9V23.391a.4.4,0,0,0,.4.4H10.911V17.632a.9.9,0,0,1,.9-.9h6.161V.9a.4.4,0,0,0-.4-.4H.9A.4.4,0,0,0,.5.9ZM11.4,17.632v5.811l6.214-6.213H11.808A.4.4,0,0,0,11.4,17.632Z" transform="translate(84 1132.799)" fill="#093145" stroke="#093145" stroke-linecap="round" stroke-width="0.3"/>
  </g>
</svg>
