<svg xmlns="http://www.w3.org/2000/svg" width="29.215" height="25.127" viewBox="0 0 29.215 25.127">
  <path id="Caminho_3940" data-name="Caminho 3940" d="M38.6,31.175l-3.992-9.626a.571.571,0,0,0,.24-.15.629.629,0,0,0,.179-.442.621.621,0,0,0-.612-.625H26.074a1.88,1.88,0,0,0-.923-1.078v-1.93a.879.879,0,0,0-.247-.611.827.827,0,0,0-.6-.252.858.858,0,0,0-.848.863v1.93a1.9,1.9,0,0,0-.923,1.078H14.192a.625.625,0,0,0-.186,1.217l-4,9.626a.11.11,0,0,0-.007.037s0,.011,0,.015h0v.113a3.023,3.023,0,0,0,2.987,3.053h2.379a3.023,3.023,0,0,0,2.987-3.053v-.113h0s0-.011,0-.015a.109.109,0,0,0-.007-.033l-3.981-9.6h8.177a1.875,1.875,0,0,0,.923,1.082V38.157H19.017a1.355,1.355,0,0,0-1.338,1.367v.1a1.355,1.355,0,0,0,1.338,1.367H29.6a1.355,1.355,0,0,0,1.338-1.367v-.1A1.355,1.355,0,0,0,29.6,38.157H25.152V22.664a1.893,1.893,0,0,0,.926-1.082h8.177l-3.981,9.593a.109.109,0,0,0-.007.033s0,.011,0,.015h0v.113a3.023,3.023,0,0,0,2.987,3.053h2.379a3.023,3.023,0,0,0,2.987-3.053v-.113h0s0-.011,0-.015A.109.109,0,0,0,38.6,31.175Zm-7.919,8.346v.1a1.105,1.105,0,0,1-1.091,1.115H19.017a1.105,1.105,0,0,1-1.091-1.115v-.1a1.105,1.105,0,0,1,1.091-1.115H29.6A1.107,1.107,0,0,1,30.685,39.521ZM38.307,31.1H30.574l3.867-9.319Zm-14.6-13.771a.609.609,0,0,1,.6-.614.588.588,0,0,1,.426.179.615.615,0,0,1,.175.435v1.821s0,0-.007,0a1.358,1.358,0,0,0-.247-.062.761.761,0,0,0-.089-.015,1.512,1.512,0,0,0-.222-.018c-.011,0-.025,0-.036,0s-.021,0-.036,0a1.561,1.561,0,0,0-.225.018.7.7,0,0,0-.086.015,1.878,1.878,0,0,0-.247.062s0,0-.007,0V17.326Zm-.072,2.117a1.594,1.594,0,0,1,1.016-.113,1.463,1.463,0,0,1,.329.113,1.638,1.638,0,0,1,.837.888H22.8A1.631,1.631,0,0,1,23.635,19.443Zm-9.811,1.514a.37.37,0,0,1,.365-.373H34.419a.37.37,0,0,1,.365.373.378.378,0,0,1-.107.263.356.356,0,0,1-.258.11H14.192A.371.371,0,0,1,13.824,20.957Zm.351.823L18.041,31.1H10.308Zm1.191,12.357H12.987a2.772,2.772,0,0,1-2.74-2.786h7.858A2.774,2.774,0,0,1,15.365,34.136Zm8.609-11.293a.271.271,0,0,0,.054.007,1.715,1.715,0,0,0,.275.022,2.27,2.27,0,0,0,.275-.022.271.271,0,0,1,.054-.007,1.662,1.662,0,0,0,.265-.069h0v15.38H23.7V22.774h0A2.7,2.7,0,0,0,23.975,22.843Zm1-.369a1.594,1.594,0,0,1-1.016.113,1.463,1.463,0,0,1-.329-.113,1.621,1.621,0,0,1-.837-.892h3.019A1.62,1.62,0,0,1,24.976,22.474ZM35.628,34.136H33.249a2.772,2.772,0,0,1-2.74-2.786h7.858A2.774,2.774,0,0,1,35.628,34.136Z" transform="translate(-9.7 -16.16)" fill="#093144" stroke="#093144" stroke-width="0.6"/>
</svg>
