<svg xmlns="http://www.w3.org/2000/svg" width="29" height="28.378" viewBox="0 0 29 28.378">
  <path id="União_11" data-name="União 11" d="M-10043.516,1476.378a3.662,3.662,0,0,1-1.82-.695,2.941,2.941,0,0,0-1.287-.548,2.941,2.941,0,0,0-1.287.548,3.672,3.672,0,0,1-1.82.695h0a3.659,3.659,0,0,1-1.818-.695,2.956,2.956,0,0,0-1.289-.548,2.95,2.95,0,0,0-1.287.548,3.659,3.659,0,0,1-1.819.695h0a3.655,3.655,0,0,1-1.817-.695,2.947,2.947,0,0,0-1.289-.548,2.941,2.941,0,0,0-1.287.548,3.659,3.659,0,0,1-1.818.695h0a3.659,3.659,0,0,1-1.818-.695,2.95,2.95,0,0,0-1.287-.548,2.947,2.947,0,0,0-1.289.548,3.659,3.659,0,0,1-1.818.695h0a3.659,3.659,0,0,1-1.817-.695,2.949,2.949,0,0,0-1.288-.548.516.516,0,0,1-.517-.516.516.516,0,0,1,.517-.516,3.659,3.659,0,0,1,1.818.695,2.947,2.947,0,0,0,1.289.548h0a2.941,2.941,0,0,0,1.287-.548,3.665,3.665,0,0,1,1.82-.695,3.659,3.659,0,0,1,1.818.695,2.946,2.946,0,0,0,1.287.548h0a2.949,2.949,0,0,0,1.288-.548,3.659,3.659,0,0,1,1.818-.695,3.659,3.659,0,0,1,1.819.695,2.949,2.949,0,0,0,1.288.548h0a2.938,2.938,0,0,0,1.289-.548,3.659,3.659,0,0,1,1.818-.695,3.658,3.658,0,0,1,1.82.695,2.941,2.941,0,0,0,1.287.548h0a2.956,2.956,0,0,0,1.289-.548,3.659,3.659,0,0,1,1.818-.695,3.659,3.659,0,0,1,1.818.695,2.947,2.947,0,0,0,1.289.548h0a.515.515,0,0,1,.516.516.516.516,0,0,1-.516.516Zm-14.189-3.271V1461.85a46.06,46.06,0,0,0-8.832,3.96c.563,2.148,2.215,6.985,2.232,7.036a.516.516,0,0,1-.321.655.52.52,0,0,1-.167.028.516.516,0,0,1-.488-.349c-.077-.226-1.9-5.566-2.354-7.507a.515.515,0,0,1,.242-.564c.124-.072,1.581-.914,3.474-1.854v-5.416a.515.515,0,0,1,.515-.516h2.593v-3.213a.516.516,0,0,1,.516-.516h.727v-5.078a.515.515,0,0,1,.516-.516.516.516,0,0,1,.517.516v5.078h.832v-1.349a.516.516,0,0,1,.517-.516.516.516,0,0,1,.516.516v1.349h2.592a.516.516,0,0,1,.516.516v3.213h2.592a.516.516,0,0,1,.516.516v5.416c1.893.94,3.349,1.783,3.473,1.854a.516.516,0,0,1,.243.564c-.455,1.941-2.277,7.281-2.354,7.507a.515.515,0,0,1-.654.321.515.515,0,0,1-.321-.655c.018-.052,1.667-4.888,2.232-7.036a46.086,46.086,0,0,0-8.833-3.96v11.256a.516.516,0,0,1-.516.516A.516.516,0,0,1-10057.705,1473.106Zm.567-12.416.023,0,.022,0h.01a26.219,26.219,0,0,1,5.593,2.055v-4.4h-11.4v4.4a26.2,26.2,0,0,1,5.593-2.055h.01l.022,0,.023,0,.051,0Zm-2.642-3.368h5.182v-2.7h-5.182Zm5.568,8.49a.516.516,0,0,1-.516-.516.516.516,0,0,1,.516-.516h1.244a.516.516,0,0,1,.516.516.515.515,0,0,1-.516.516Zm-7.159,0a.516.516,0,0,1-.515-.516.516.516,0,0,1,.515-.516h1.244a.516.516,0,0,1,.516.516.515.515,0,0,1-.516.516Z" transform="translate(10072 -1448)" fill="#093145"/>
</svg>
