<svg xmlns="http://www.w3.org/2000/svg" width="27.157" height="28.685" viewBox="0 0 27.157 28.685">
  <path id="Caminho_4129" data-name="Caminho 4129" d="M18.508,27.462h-1.3V24.874a.491.491,0,0,0-.491-.491H6.644a.491.491,0,0,0-.491.491v2.588H4.861a.491.491,0,0,0-.491.491v3.059a.491.491,0,0,0,.491.491H18.508A.491.491,0,0,0,19,31.013V27.953A.491.491,0,0,0,18.508,27.462Zm-11.374-2.1H16.23v2.1H7.135ZM18.017,30.5H5.352V28.444H18.017Zm12.955-4.6L19.034,14.011l2.342-2.342.241.246a.491.491,0,0,0,.692,0l2.013-2.023a.48.48,0,0,0,0-.692L18.1,2.962a.491.491,0,0,0-.692,0L15.38,4.98a.491.491,0,0,0,0,.7l.241.241L8.353,13.191l-.246-.246a.491.491,0,0,0-.692,0L5.391,14.969a.491.491,0,0,0,0,.7L11.628,21.9a.5.5,0,0,0,.7,0l2.018-2.023a.486.486,0,0,0,0-.7l-.241-.241L16.465,16.6,28.4,28.489A1.832,1.832,0,1,0,30.992,25.9Zm-19-5.039L6.433,15.318l1.331-1.331L13.3,19.531ZM17.752,4l5.539,5.539-1.326,1.331-.246-.246L16.662,5.575l-.241-.246ZM16.318,6.616l4.361,4.361-2.686,2.686-1.9,1.9h0l-2.686,2.686L9.045,13.879ZM30.275,27.8h0a.869.869,0,0,1-1.2,0L17.138,15.907l1.2-1.213L30.275,26.583a.85.85,0,0,1,0,1.2Z" transform="translate(-4.37 -2.819)" fill="#093145"/>
</svg>
