<svg xmlns="http://www.w3.org/2000/svg" width="25.999" height="22.971" viewBox="0 0 25.999 22.971">
  <g id="Grupo_5437" data-name="Grupo 5437" transform="translate(-587.5 -1884.403)">
    <g id="Grupo_5436" data-name="Grupo 5436" transform="translate(588 1885)">
      <g id="Grupo_5435" data-name="Grupo 5435" transform="translate(0 0)">
        <path id="Caminho_4026" data-name="Caminho 4026" d="M685.109,353.965a2.775,2.775,0,1,1-2.771-2.917A2.847,2.847,0,0,1,685.109,353.965Zm10.827-2.917a2.921,2.921,0,1,0,2.771,2.917A2.847,2.847,0,0,0,695.936,351.048Z" transform="translate(-676.606 -335.009)" fill="none" stroke="#093145" stroke-miterlimit="10" stroke-width="1"/>
        <rect id="Retângulo_6058" data-name="Retângulo 6058" width="24.999" height="3.682" rx="1" transform="translate(0 6.226)" fill="none" stroke="#093145" stroke-miterlimit="10" stroke-width="1"/>
        <line id="Linha_185" data-name="Linha 185" x1="8.481" transform="translate(8.288 18.954)" fill="none" stroke="#093145" stroke-miterlimit="10" stroke-width="1"/>
        <path id="Caminho_4027" data-name="Caminho 4027" d="M663.133,232.508l-1.849-6.968h21.184l-1.885,7.1" transform="translate(-659.251 -215.632)" fill="none" stroke="#093145" stroke-miterlimit="10" stroke-width="1"/>
        <path id="Caminho_4028" data-name="Caminho 4028" d="M654.09,34.226,663.629,28l9.539,6.226Z" transform="translate(-651.13 -28)" fill="none" stroke="#093145" stroke-miterlimit="10" stroke-width="1"/>
      </g>
      <circle id="Elipse_23" data-name="Elipse 23" cx="0.863" cy="0.863" r="0.863" transform="translate(4.834 18.091)" fill="#093145"/>
      <circle id="Elipse_24" data-name="Elipse 24" cx="0.863" cy="0.863" r="0.863" transform="translate(18.376 18.091)" fill="#093145"/>
    </g>
  </g>
</svg>
