<svg xmlns="http://www.w3.org/2000/svg" width="24.297" height="24.297" viewBox="0 0 24.297 24.297">
  <g id="Grupo_5424" data-name="Grupo 5424" transform="translate(-9.85 -9.85)">
    <path id="Caminho_3972" data-name="Caminho 3972" d="M12.588,10h.04l16.592.009a3,3,0,0,1,2.974,3V28.061h1.5a.3.3,0,0,1,.3.3v2.625a3.011,3.011,0,0,1-3,3.012H17.676l-.232-.008a3,3,0,0,1-2.973-3V15.115H10.3a.3.3,0,0,1-.3-.3V12.594A2.594,2.594,0,0,1,12.588,10ZM30.994,33.4a2.41,2.41,0,0,0,2.4-2.412V28.661H20.69v2.325A3.012,3.012,0,0,1,19.484,33.4Zm-15.923-2.41a2.4,2.4,0,0,0,2.386,2.4l.231.008a2.41,2.41,0,0,0,2.4-2.412V28.361a.3.3,0,0,1,.3-.3h11.2V13.01a2.4,2.4,0,0,0-2.376-2.4L14.227,10.6a2.436,2.436,0,0,1,.844,1.843ZM10.6,14.515h3.871V12.444A1.846,1.846,0,0,0,12.628,10.6h-.04A1.993,1.993,0,0,0,10.6,12.594Z" fill="#093145" stroke="#093145" stroke-width="0.3"/>
    <path id="Caminho_3973" data-name="Caminho 3973" d="M37.306,25.25H47.428a.306.306,0,1,1,0,.612H37.306a.306.306,0,0,1,0-.612Z" transform="translate(-19.032 -10.678)" fill="#093145" stroke="#093145" stroke-width="0.3"/>
    <path id="Caminho_3974" data-name="Caminho 3974" d="M37.306,36.5H47.428a.306.306,0,1,1,0,.612H37.306a.306.306,0,0,1,0-.612Z" transform="translate(-19.032 -18.555)" fill="#093145" stroke="#093145" stroke-width="0.3"/>
    <path id="Caminho_3975" data-name="Caminho 3975" d="M37.306,47.75H47.428a.306.306,0,1,1,0,.612H37.306a.306.306,0,0,1,0-.612Z" transform="translate(-19.032 -26.432)" fill="#093145" stroke="#093145" stroke-width="0.3"/>
    <path id="Caminho_3976" data-name="Caminho 3976" d="M37.306,59H47.428a.306.306,0,1,1,0,.612H37.306a.306.306,0,0,1,0-.612Z" transform="translate(-19.032 -34.309)" fill="#093145" stroke="#093145" stroke-width="0.3"/>
  </g>
</svg>
