<svg xmlns="http://www.w3.org/2000/svg" width="29.315" height="23.653" viewBox="0 0 29.315 23.653">
  <path id="Icon_awesome-tractor" data-name="Icon awesome-tractor" d="M23.361,14.866a3.893,3.893,0,1,0,3.893,3.893A3.893,3.893,0,0,0,23.361,14.866Zm0,4.955a1.062,1.062,0,1,1,1.062-1.062A1.063,1.063,0,0,1,23.361,19.821ZM26.9,7.079H24.069V5.3a2.836,2.836,0,0,1,.582-1.718.683.683,0,0,0-.058-.862L23.635,1.65a.72.72,0,0,0-1.093.035A5.671,5.671,0,0,0,21.237,5.3V7.079H16.709l-2.482-5.79A2.12,2.12,0,0,0,12.275,0h-5.9A2.126,2.126,0,0,0,4.247,2.124V8.606a.963.963,0,0,0-1.278.065L1.593,10.048a.973.973,0,0,0,0,1.376l.224.224a6.712,6.712,0,0,0-.527,1.271H.973A.973.973,0,0,0,0,13.892v1.947a.973.973,0,0,0,.973.973h.316a6.745,6.745,0,0,0,.527,1.271l-.224.224a.973.973,0,0,0,0,1.376L2.969,21.06a.973.973,0,0,0,1.376,0l.224-.224a6.712,6.712,0,0,0,1.271.527v.316a.973.973,0,0,0,.973.973H8.76a.973.973,0,0,0,.973-.973v-.316A6.712,6.712,0,0,0,11,20.837l.224.224a.973.973,0,0,0,1.376,0l1.376-1.376a.973.973,0,0,0,0-1.376l-.224-.224a6.712,6.712,0,0,0,.527-1.271H14.6a.973.973,0,0,0,.973-.973v-.265h3.563a5.221,5.221,0,0,1,6.515-1.584L27.9,11.742a1.416,1.416,0,0,0,.415-1V8.495A1.415,1.415,0,0,0,26.9,7.079ZM7.787,18.405a3.539,3.539,0,1,1,3.539-3.539A3.54,3.54,0,0,1,7.787,18.405ZM8.76,7.079H7.079V2.832h4.729l1.821,4.247Z" transform="translate(0.5 0.5)" fill="none" stroke="#093145" stroke-width="1"/>
</svg>
