<svg xmlns="http://www.w3.org/2000/svg" width="29.23" height="26.883" viewBox="0 0 29.23 26.883">
  <g id="ESG" transform="translate(-75.8 -90.453)">
    <g id="Grupo_5486" data-name="Grupo 5486" transform="translate(76 90.653)">
      <path id="Caminho_4144" data-name="Caminho 4144" d="M149.549,100.267v6.459h-4.4a.24.24,0,1,0,0,.48h9.21a.24.24,0,0,0,0-.48H150.03v-6.461A9.292,9.292,0,0,0,159,90.988v-.335h-.24A9.3,9.3,0,0,0,149.75,97.7a9.3,9.3,0,0,0-9.009-7.049h-.24v.335A9.293,9.293,0,0,0,149.549,100.267Zm8.968-9.13a8.812,8.812,0,0,1-8.5,8.647q0-.306-.029-.606A8.814,8.814,0,0,1,158.518,91.137Zm-9.009,8.041q-.024.3-.029.606a8.812,8.812,0,0,1-8.5-8.647A8.814,8.814,0,0,1,149.509,99.178Z" transform="translate(-135.335 -90.653)" stroke="#093144" stroke-width="0.4"/>
      <path id="Caminho_4145" data-name="Caminho 4145" d="M86.336,203.124l-.085-3.6a3.259,3.259,0,0,0-.951-1.852L83.134,195.5l-1.922-1.842-.019-.016a1.556,1.556,0,0,0-1.616-.266,2.78,2.78,0,0,0-.373.222v-4.492a1.609,1.609,0,1,0-3.2,0v6.339a5.282,5.282,0,0,0,.773,2.541l2.258,2.18.876.956.015.015c.324.295.8.849.8,1.1v.022c0,.006.046.494.065.859h-.466a.641.641,0,0,0-.641.641v2.322h.48v-2.322a.162.162,0,0,1,.16-.16h6.006a.162.162,0,0,1,.16.16v2.322h.48v-2.322A.641.641,0,0,0,86.336,203.124Zm-6.082-2.333-.874-.953-2.241-2.162a4.9,4.9,0,0,1-.659-2.247v-6.32a1.131,1.131,0,1,1,2.242,0v5a1.236,1.236,0,0,0-.149.388,1.627,1.627,0,0,0,.368,1.26l2.9,2.841.336-.343-2.88-2.818a1.147,1.147,0,0,1-.255-.845,1.222,1.222,0,0,1,.744-.778,1.085,1.085,0,0,1,1.1.207l1.909,1.829,2.162,2.162a2.753,2.753,0,0,1,.811,1.518l.084,3.559H81.27c-.019-.347-.058-.781-.064-.854C81.194,201.682,80.43,200.952,80.254,200.791Z" transform="translate(-76 -179.603)" stroke="#093144" stroke-width="0.4"/>
      <path id="Caminho_4146" data-name="Caminho 4146" d="M308.37,187.347a1.689,1.689,0,0,0-1.6,1.762V193.6a2.782,2.782,0,0,0-.373-.222,1.556,1.556,0,0,0-1.616.266l-1.944,1.862-2.162,2.162a3.258,3.258,0,0,0-.951,1.846l-.085,3.61a.641.641,0,0,0-.636.64v2.322h.48v-2.322a.162.162,0,0,1,.16-.16h6.006a.162.162,0,0,1,.16.16v2.322h.48v-2.322a.641.641,0,0,0-.641-.641h-.466c.019-.365.064-.853.065-.859v-.022c0-.254.479-.809.8-1.1l.891-.971,2.237-2.157.021-.023a5.281,5.281,0,0,0,.773-2.541v-6.339A1.689,1.689,0,0,0,308.37,187.347Zm1.121,8.082a4.882,4.882,0,0,1-.659,2.247l-2.231,2.151-.884.964c-.176.161-.94.891-.951,1.439-.007.073-.046.507-.064.854h-4.585l.084-3.564a2.754,2.754,0,0,1,.811-1.512l2.159-2.159,1.913-1.833a1.086,1.086,0,0,1,1.1-.208,1.227,1.227,0,0,1,.746.776,1.141,1.141,0,0,1-.255.848l-2.88,2.818.336.343,2.888-2.827.013-.014a1.627,1.627,0,0,0,.368-1.26,1.235,1.235,0,0,0-.149-.388v-5a1.131,1.131,0,1,1,2.242,0Z" transform="translate(-281.141 -179.603)" stroke="#093144" stroke-width="0.4"/>
    </g>
  </g>
</svg>
