<svg xmlns="http://www.w3.org/2000/svg" width="30.24" height="25.21" viewBox="0 0 30.24 25.21">
  <g id="Grupo_5546" data-name="Grupo 5546" transform="translate(-1002.338 -335.144)">
    <g id="Grupo_5537" data-name="Grupo 5537" transform="translate(1021.543 335.644)">
      <path id="Caminho_3971" data-name="Caminho 3971" d="M1017.108,347.1l5.187-11.459,5.187,11.459" transform="translate(-1017.108 -335.644)" fill="none" stroke="#093145" stroke-linecap="round" stroke-linejoin="round" stroke-width="1"/>
    </g>
    <line id="Linha_183" data-name="Linha 183" x1="14.963" transform="translate(1009.977 359.853)" fill="none" stroke="#093145" stroke-linecap="round" stroke-linejoin="round" stroke-width="1"/>
    <line id="Linha_184" data-name="Linha 184" y2="19.421" transform="translate(1017.459 337.804)" fill="none" stroke="#093145" stroke-linecap="round" stroke-linejoin="round" stroke-width="1"/>
    <path id="Caminho_3972" data-name="Caminho 3972" d="M1015.644,335.644" transform="translate(3.975 0)" fill="none" stroke="#093145" stroke-linecap="round" stroke-linejoin="round" stroke-width="1"/>
    <path id="Caminho_3973" data-name="Caminho 3973" d="M1021.054,335.644" transform="translate(5.676 0)" fill="none" stroke="#093145" stroke-linecap="round" stroke-linejoin="round" stroke-width="1"/>
    <line id="Linha_185" data-name="Linha 185" x1="18.941" transform="translate(1008.187 335.644)" fill="none" stroke="#093145" stroke-linecap="round" stroke-linejoin="round" stroke-width="1"/>
    <g id="Grupo_5538" data-name="Grupo 5538" transform="translate(1021.545 347.103)">
      <path id="Caminho_3974" data-name="Caminho 3974" d="M1022.294,348.94a5.226,5.226,0,0,1-5.185-4.578h10.372A5.227,5.227,0,0,1,1022.294,348.94Z" transform="translate(-1017.109 -344.362)" fill="none" stroke="#093145" stroke-linecap="round" stroke-linejoin="round" stroke-width="1"/>
    </g>
    <g id="Grupo_5539" data-name="Grupo 5539" transform="translate(1003 335.644)">
      <path id="Caminho_3975" data-name="Caminho 3975" d="M1003,347.1l5.187-11.459,5.187,11.459" transform="translate(-1003 -335.644)" fill="none" stroke="#093145" stroke-linecap="round" stroke-linejoin="round" stroke-width="1"/>
    </g>
    <g id="Grupo_5540" data-name="Grupo 5540" transform="translate(1003.001 347.103)">
      <path id="Caminho_3976" data-name="Caminho 3976" d="M1008.188,348.94a5.228,5.228,0,0,1-5.187-4.578h10.372A5.227,5.227,0,0,1,1008.188,348.94Z" transform="translate(-1003.001 -344.362)" fill="none" stroke="#093145" stroke-linecap="round" stroke-linejoin="round" stroke-width="1"/>
    </g>
  </g>
</svg>
