<svg xmlns="http://www.w3.org/2000/svg" width="21.066" height="31.24" viewBox="0 0 21.066 31.24">
  <g id="Grupo_5536" data-name="Grupo 5536" transform="translate(-1002.257 -269.5)">
    <path id="Caminho_3968" data-name="Caminho 3968" d="M1022.962,293.531h-7.114v2.961H1009.4v2.917h-6.639v3.024" transform="translate(0 -1.693)" fill="none" stroke="#093145" stroke-miterlimit="10" stroke-width="1"/>
    <path id="Caminho_3969" data-name="Caminho 3969" d="M1022.633,272.209a2.209,2.209,0,1,1-2.209-2.209A2.209,2.209,0,0,1,1022.633,272.209Z" transform="translate(-1.112 0)" fill="none" stroke="#093145" stroke-miterlimit="10" stroke-width="1"/>
    <path id="Caminho_3970" data-name="Caminho 3970" d="M1022.108,290.187l-.006-5.637a1.742,1.742,0,0,0,1.734-1.737l-.007-4.6a1.739,1.739,0,0,0-1.736-1.734l-3.547,0a1.741,1.741,0,0,0-1.734,1.737l.006,4.6a1.74,1.74,0,0,0,1.737,1.734l.006,5.637" transform="translate(-1.011 -0.466)" fill="none" stroke="#093145" stroke-miterlimit="10" stroke-width="1"/>
  </g>
</svg>
