<svg xmlns="http://www.w3.org/2000/svg" width="33.021" height="32.521" viewBox="0 0 33.021 32.521">
  <g id="Grupo_5548" data-name="Grupo 5548" transform="translate(-1004.712 -450.058)">
    <g id="Grupo_5543" data-name="Grupo 5543" transform="translate(1014.958 466.764)">
      <path id="Caminho_3979" data-name="Caminho 3979" d="M1021.332,465.7v-1.48a4.583,4.583,0,0,0-4.555-4.587,4.479,4.479,0,0,0-4.842,4.175v1.89a3.866,3.866,0,0,1-1.168,2.75,1.288,1.288,0,0,0-.376,1.162,1.591,1.591,0,0,0,1.627,1.159h9.231a1.67,1.67,0,0,0,1.627-1.159,1.289,1.289,0,0,0-.376-1.162A3.862,3.862,0,0,1,1021.332,465.7Z" transform="translate(-1010.368 -458.241)" fill="none" stroke="#093145" stroke-miterlimit="10" stroke-width="1"/>
      <path id="Caminho_3980" data-name="Caminho 3980" d="M1012.21,465.527a2.784,2.784,0,0,0,5.568,0" transform="translate(-1008.729 -452.996)" fill="none" stroke="#093145" stroke-miterlimit="10" stroke-width="1"/>
      <path id="Caminho_3981" data-name="Caminho 3981" d="M1012.78,460.573a1.706,1.706,0,0,1,3.412-.008" transform="translate(-1008.222 -458.897)" fill="none" stroke="#093145" stroke-miterlimit="10" stroke-width="1"/>
    </g>
    <g id="Grupo_5544" data-name="Grupo 5544" transform="translate(1005.212 450.058)">
      <line id="Linha_187" data-name="Linha 187" y2="4.177" transform="translate(26.452)" fill="none" stroke="#093145" stroke-miterlimit="10" stroke-width="1"/>
      <line id="Linha_188" data-name="Linha 188" y2="4.177" transform="translate(19.491)" fill="none" stroke="#093145" stroke-miterlimit="10" stroke-width="1"/>
      <line id="Linha_189" data-name="Linha 189" y2="4.177" transform="translate(12.53)" fill="none" stroke="#093145" stroke-miterlimit="10" stroke-width="1"/>
      <line id="Linha_190" data-name="Linha 190" y2="4.177" transform="translate(5.569)" fill="none" stroke="#093145" stroke-miterlimit="10" stroke-width="1"/>
      <path id="Caminho_3982" data-name="Caminho 3982" d="M1010.78,480.03h-3.48a2.088,2.088,0,0,1-2.089-2.089V452.884a2.088,2.088,0,0,1,2.089-2.089h27.844a2.088,2.088,0,0,1,2.089,2.089v25.058a2.088,2.088,0,0,1-2.089,2.089h-3.48" transform="translate(-1005.212 -449.402)" fill="none" stroke="#093145" stroke-miterlimit="10" stroke-width="1"/>
      <line id="Linha_191" data-name="Linha 191" x2="22.276" transform="translate(4.873 9.05)" fill="none" stroke="#093145" stroke-miterlimit="10" stroke-width="1"/>
    </g>
  </g>
</svg>
